<svg xmlns="http://www.w3.org/2000/svg" version="1.1" xmlns:xlink="http://www.w3.org/1999/xlink" width="512" height="512"><svg xmlns="http://www.w3.org/2000/svg" version="1.1" xmlns:xlink="http://www.w3.org/1999/xlink" width="512" height="512"><svg width="512" height="512" viewBox="0 0 512 512" fill="none" xmlns="http://www.w3.org/2000/svg">
<mask id="path-1-outside-1_1_2" maskUnits="userSpaceOnUse" x="45" y="28.9953" width="422" height="454" fill="black">
<rect fill="white" x="45" y="28.9953" width="422" height="454"></rect>
<path fill-rule="evenodd" clip-rule="evenodd" d="M247.936 34.176C250.383 32.7478 253.166 31.9953 256 31.9953C258.834 31.9953 261.617 32.7478 264.064 34.176L312.064 62.1867C315.614 64.3812 318.166 67.8759 319.175 71.9253C320.185 75.9748 319.572 80.2584 317.468 83.8626C315.364 87.4668 311.935 90.1062 307.913 91.2179C303.89 92.3296 299.592 91.8256 295.936 89.8133L256 66.5173L216.064 89.8133C214.248 90.9361 212.225 91.684 210.116 92.013C208.006 92.3419 205.852 92.2453 203.78 91.7288C201.708 91.2122 199.761 90.2862 198.052 89.0053C196.344 87.7244 194.909 86.1146 193.833 84.2706C192.756 82.4266 192.06 80.3858 191.784 78.2685C191.509 76.1511 191.66 74 192.229 71.942C192.797 69.8839 193.772 67.9605 195.096 66.2851C196.42 64.6097 198.065 63.2162 199.936 62.1867L247.936 34.176ZM125.824 123.947C127.957 127.611 128.549 131.972 127.469 136.072C126.389 140.172 123.725 143.675 120.064 145.813L95.744 160L120.064 174.187C121.935 175.216 123.58 176.61 124.904 178.285C126.228 179.961 127.203 181.884 127.771 183.942C128.34 186 128.491 188.151 128.216 190.268C127.94 192.386 127.244 194.427 126.167 196.271C125.091 198.115 123.656 199.724 121.948 201.005C120.239 202.286 118.292 203.212 116.22 203.729C114.148 204.245 111.994 204.342 109.884 204.013C107.775 203.684 105.752 202.936 103.936 201.813L80 187.861V208C80 212.243 78.3143 216.313 75.3137 219.314C72.3131 222.314 68.2435 224 64 224C59.7565 224 55.6869 222.314 52.6863 219.314C49.6857 216.313 48 212.243 48 208V160C47.9992 157.203 48.7315 154.455 50.124 152.029C51.5164 149.604 53.5204 147.586 55.936 146.176L103.936 118.187C105.751 117.127 107.757 116.436 109.84 116.152C111.923 115.868 114.041 115.997 116.073 116.532C118.106 117.067 120.013 117.997 121.686 119.269C123.359 120.541 124.765 122.131 125.824 123.947ZM386.176 123.947C387.235 122.131 388.641 120.541 390.314 119.269C391.987 117.997 393.894 117.067 395.927 116.532C397.959 115.997 400.077 115.868 402.16 116.152C404.243 116.436 406.249 117.127 408.064 118.187L456.064 146.176C458.48 147.586 460.484 149.604 461.876 152.029C463.269 154.455 464.001 157.203 464 160V208C464 212.243 462.314 216.313 459.314 219.314C456.313 222.314 452.243 224 448 224C443.757 224 439.687 222.314 436.686 219.314C433.686 216.313 432 212.243 432 208V187.861L408.064 201.813C406.248 202.936 404.225 203.684 402.116 204.013C400.006 204.342 397.852 204.245 395.78 203.729C393.708 203.212 391.761 202.286 390.052 201.005C388.344 199.724 386.909 198.115 385.833 196.271C384.756 194.427 384.06 192.386 383.784 190.268C383.509 188.151 383.66 186 384.229 183.942C384.797 181.884 385.772 179.961 387.096 178.285C388.42 176.61 390.065 175.216 391.936 174.187L416.256 160L391.936 145.813C388.275 143.675 385.611 140.172 384.531 136.072C383.451 131.972 384.043 127.611 386.176 123.947ZM194.176 235.947C195.235 234.131 196.641 232.541 198.314 231.269C199.987 229.997 201.894 229.067 203.927 228.532C205.959 227.997 208.077 227.868 210.16 228.152C212.243 228.436 214.249 229.127 216.064 230.187L256 253.483L295.936 230.187C297.752 229.064 299.775 228.316 301.884 227.987C303.994 227.658 306.148 227.755 308.22 228.271C310.292 228.788 312.239 229.714 313.948 230.995C315.656 232.276 317.091 233.885 318.167 235.729C319.244 237.573 319.94 239.614 320.216 241.732C320.491 243.849 320.34 246 319.771 248.058C319.203 250.116 318.228 252.04 316.904 253.715C315.58 255.39 313.935 256.784 312.064 257.813L272 281.195V320C272 324.243 270.314 328.313 267.314 331.314C264.313 334.314 260.243 336 256 336C251.757 336 247.687 334.314 244.686 331.314C241.686 328.313 240 324.243 240 320V281.173L199.936 257.813C196.275 255.676 193.611 252.172 192.531 248.072C191.451 243.972 192.043 239.611 194.176 235.947ZM64 288C68.2435 288 72.3131 289.686 75.3137 292.686C78.3143 295.687 80 299.757 80 304V342.827L120.064 366.187C121.935 367.216 123.58 368.61 124.904 370.285C126.228 371.96 127.203 373.884 127.771 375.942C128.34 378 128.491 380.151 128.216 382.268C127.94 384.386 127.244 386.427 126.167 388.271C125.091 390.115 123.656 391.724 121.948 393.005C120.239 394.286 118.292 395.212 116.22 395.729C114.148 396.245 111.994 396.342 109.884 396.013C107.775 395.684 105.752 394.936 103.936 393.813L55.936 365.824C53.5204 364.414 51.5164 362.396 50.124 359.971C48.7315 357.545 47.9992 354.797 48 352V304C48 299.757 49.6857 295.687 52.6863 292.686C55.6869 289.686 59.7565 288 64 288ZM448 288C452.243 288 456.313 289.686 459.314 292.686C462.314 295.687 464 299.757 464 304V352C464.001 354.797 463.269 357.545 461.876 359.971C460.484 362.396 458.48 364.414 456.064 365.824L408.064 393.813C406.248 394.936 404.225 395.684 402.116 396.013C400.006 396.342 397.852 396.245 395.78 395.729C393.708 395.212 391.761 394.286 390.052 393.005C388.344 391.724 386.909 390.115 385.833 388.271C384.756 386.427 384.06 384.386 383.784 382.268C383.509 380.151 383.66 378 384.229 375.942C384.797 373.884 385.772 371.96 387.096 370.285C388.42 368.61 390.065 367.216 391.936 366.187L432 342.805V304C432 299.757 433.686 295.687 436.686 292.686C439.687 289.686 443.757 288 448 288ZM256 400C260.243 400 264.313 401.686 267.314 404.686C270.314 407.687 272 411.757 272 416V436.139L295.936 422.187C297.752 421.064 299.775 420.316 301.884 419.987C303.994 419.658 306.148 419.755 308.22 420.271C310.292 420.788 312.239 421.714 313.948 422.995C315.656 424.276 317.091 425.885 318.167 427.729C319.244 429.573 319.94 431.614 320.216 433.732C320.491 435.849 320.34 438 319.771 440.058C319.203 442.116 318.228 444.04 316.904 445.715C315.58 447.39 313.935 448.784 312.064 449.813L264.064 477.824C261.617 479.252 258.834 480.005 256 480.005C253.166 480.005 250.383 479.252 247.936 477.824L199.936 449.813C198.065 448.784 196.42 447.39 195.096 445.715C193.772 444.04 192.797 442.116 192.229 440.058C191.66 438 191.509 435.849 191.784 433.732C192.06 431.614 192.756 429.573 193.833 427.729C194.909 425.885 196.344 424.276 198.052 422.995C199.761 421.714 201.708 420.788 203.78 420.271C205.852 419.755 208.006 419.658 210.116 419.987C212.225 420.316 214.248 421.064 216.064 422.187L240 436.139V416C240 411.757 241.686 407.687 244.686 404.686C247.687 401.686 251.757 400 256 400Z"></path>
</mask>
<path fill-rule="evenodd" clip-rule="evenodd" d="M247.936 34.176C250.383 32.7478 253.166 31.9953 256 31.9953C258.834 31.9953 261.617 32.7478 264.064 34.176L312.064 62.1867C315.614 64.3812 318.166 67.8759 319.175 71.9253C320.185 75.9748 319.572 80.2584 317.468 83.8626C315.364 87.4668 311.935 90.1062 307.913 91.2179C303.89 92.3296 299.592 91.8256 295.936 89.8133L256 66.5173L216.064 89.8133C214.248 90.9361 212.225 91.684 210.116 92.013C208.006 92.3419 205.852 92.2453 203.78 91.7288C201.708 91.2122 199.761 90.2862 198.052 89.0053C196.344 87.7244 194.909 86.1146 193.833 84.2706C192.756 82.4266 192.06 80.3858 191.784 78.2685C191.509 76.1511 191.66 74 192.229 71.942C192.797 69.8839 193.772 67.9605 195.096 66.2851C196.42 64.6097 198.065 63.2162 199.936 62.1867L247.936 34.176ZM125.824 123.947C127.957 127.611 128.549 131.972 127.469 136.072C126.389 140.172 123.725 143.675 120.064 145.813L95.744 160L120.064 174.187C121.935 175.216 123.58 176.61 124.904 178.285C126.228 179.961 127.203 181.884 127.771 183.942C128.34 186 128.491 188.151 128.216 190.268C127.94 192.386 127.244 194.427 126.167 196.271C125.091 198.115 123.656 199.724 121.948 201.005C120.239 202.286 118.292 203.212 116.22 203.729C114.148 204.245 111.994 204.342 109.884 204.013C107.775 203.684 105.752 202.936 103.936 201.813L80 187.861V208C80 212.243 78.3143 216.313 75.3137 219.314C72.3131 222.314 68.2435 224 64 224C59.7565 224 55.6869 222.314 52.6863 219.314C49.6857 216.313 48 212.243 48 208V160C47.9992 157.203 48.7315 154.455 50.124 152.029C51.5164 149.604 53.5204 147.586 55.936 146.176L103.936 118.187C105.751 117.127 107.757 116.436 109.84 116.152C111.923 115.868 114.041 115.997 116.073 116.532C118.106 117.067 120.013 117.997 121.686 119.269C123.359 120.541 124.765 122.131 125.824 123.947ZM386.176 123.947C387.235 122.131 388.641 120.541 390.314 119.269C391.987 117.997 393.894 117.067 395.927 116.532C397.959 115.997 400.077 115.868 402.16 116.152C404.243 116.436 406.249 117.127 408.064 118.187L456.064 146.176C458.48 147.586 460.484 149.604 461.876 152.029C463.269 154.455 464.001 157.203 464 160V208C464 212.243 462.314 216.313 459.314 219.314C456.313 222.314 452.243 224 448 224C443.757 224 439.687 222.314 436.686 219.314C433.686 216.313 432 212.243 432 208V187.861L408.064 201.813C406.248 202.936 404.225 203.684 402.116 204.013C400.006 204.342 397.852 204.245 395.78 203.729C393.708 203.212 391.761 202.286 390.052 201.005C388.344 199.724 386.909 198.115 385.833 196.271C384.756 194.427 384.06 192.386 383.784 190.268C383.509 188.151 383.66 186 384.229 183.942C384.797 181.884 385.772 179.961 387.096 178.285C388.42 176.61 390.065 175.216 391.936 174.187L416.256 160L391.936 145.813C388.275 143.675 385.611 140.172 384.531 136.072C383.451 131.972 384.043 127.611 386.176 123.947ZM194.176 235.947C195.235 234.131 196.641 232.541 198.314 231.269C199.987 229.997 201.894 229.067 203.927 228.532C205.959 227.997 208.077 227.868 210.16 228.152C212.243 228.436 214.249 229.127 216.064 230.187L256 253.483L295.936 230.187C297.752 229.064 299.775 228.316 301.884 227.987C303.994 227.658 306.148 227.755 308.22 228.271C310.292 228.788 312.239 229.714 313.948 230.995C315.656 232.276 317.091 233.885 318.167 235.729C319.244 237.573 319.94 239.614 320.216 241.732C320.491 243.849 320.34 246 319.771 248.058C319.203 250.116 318.228 252.04 316.904 253.715C315.58 255.39 313.935 256.784 312.064 257.813L272 281.195V320C272 324.243 270.314 328.313 267.314 331.314C264.313 334.314 260.243 336 256 336C251.757 336 247.687 334.314 244.686 331.314C241.686 328.313 240 324.243 240 320V281.173L199.936 257.813C196.275 255.676 193.611 252.172 192.531 248.072C191.451 243.972 192.043 239.611 194.176 235.947ZM64 288C68.2435 288 72.3131 289.686 75.3137 292.686C78.3143 295.687 80 299.757 80 304V342.827L120.064 366.187C121.935 367.216 123.58 368.61 124.904 370.285C126.228 371.96 127.203 373.884 127.771 375.942C128.34 378 128.491 380.151 128.216 382.268C127.94 384.386 127.244 386.427 126.167 388.271C125.091 390.115 123.656 391.724 121.948 393.005C120.239 394.286 118.292 395.212 116.22 395.729C114.148 396.245 111.994 396.342 109.884 396.013C107.775 395.684 105.752 394.936 103.936 393.813L55.936 365.824C53.5204 364.414 51.5164 362.396 50.124 359.971C48.7315 357.545 47.9992 354.797 48 352V304C48 299.757 49.6857 295.687 52.6863 292.686C55.6869 289.686 59.7565 288 64 288ZM448 288C452.243 288 456.313 289.686 459.314 292.686C462.314 295.687 464 299.757 464 304V352C464.001 354.797 463.269 357.545 461.876 359.971C460.484 362.396 458.48 364.414 456.064 365.824L408.064 393.813C406.248 394.936 404.225 395.684 402.116 396.013C400.006 396.342 397.852 396.245 395.78 395.729C393.708 395.212 391.761 394.286 390.052 393.005C388.344 391.724 386.909 390.115 385.833 388.271C384.756 386.427 384.06 384.386 383.784 382.268C383.509 380.151 383.66 378 384.229 375.942C384.797 373.884 385.772 371.96 387.096 370.285C388.42 368.61 390.065 367.216 391.936 366.187L432 342.805V304C432 299.757 433.686 295.687 436.686 292.686C439.687 289.686 443.757 288 448 288ZM256 400C260.243 400 264.313 401.686 267.314 404.686C270.314 407.687 272 411.757 272 416V436.139L295.936 422.187C297.752 421.064 299.775 420.316 301.884 419.987C303.994 419.658 306.148 419.755 308.22 420.271C310.292 420.788 312.239 421.714 313.948 422.995C315.656 424.276 317.091 425.885 318.167 427.729C319.244 429.573 319.94 431.614 320.216 433.732C320.491 435.849 320.34 438 319.771 440.058C319.203 442.116 318.228 444.04 316.904 445.715C315.58 447.39 313.935 448.784 312.064 449.813L264.064 477.824C261.617 479.252 258.834 480.005 256 480.005C253.166 480.005 250.383 479.252 247.936 477.824L199.936 449.813C198.065 448.784 196.42 447.39 195.096 445.715C193.772 444.04 192.797 442.116 192.229 440.058C191.66 438 191.509 435.849 191.784 433.732C192.06 431.614 192.756 429.573 193.833 427.729C194.909 425.885 196.344 424.276 198.052 422.995C199.761 421.714 201.708 420.788 203.78 420.271C205.852 419.755 208.006 419.658 210.116 419.987C212.225 420.316 214.248 421.064 216.064 422.187L240 436.139V416C240 411.757 241.686 407.687 244.686 404.686C247.687 401.686 251.757 400 256 400Z" fill="#8A73F9"></path>
<path fill-rule="evenodd" clip-rule="evenodd" d="M247.936 34.176C250.383 32.7478 253.166 31.9953 256 31.9953C258.834 31.9953 261.617 32.7478 264.064 34.176L312.064 62.1867C315.614 64.3812 318.166 67.8759 319.175 71.9253C320.185 75.9748 319.572 80.2584 317.468 83.8626C315.364 87.4668 311.935 90.1062 307.913 91.2179C303.89 92.3296 299.592 91.8256 295.936 89.8133L256 66.5173L216.064 89.8133C214.248 90.9361 212.225 91.684 210.116 92.013C208.006 92.3419 205.852 92.2453 203.78 91.7288C201.708 91.2122 199.761 90.2862 198.052 89.0053C196.344 87.7244 194.909 86.1146 193.833 84.2706C192.756 82.4266 192.06 80.3858 191.784 78.2685C191.509 76.1511 191.66 74 192.229 71.942C192.797 69.8839 193.772 67.9605 195.096 66.2851C196.42 64.6097 198.065 63.2162 199.936 62.1867L247.936 34.176ZM125.824 123.947C127.957 127.611 128.549 131.972 127.469 136.072C126.389 140.172 123.725 143.675 120.064 145.813L95.744 160L120.064 174.187C121.935 175.216 123.58 176.61 124.904 178.285C126.228 179.961 127.203 181.884 127.771 183.942C128.34 186 128.491 188.151 128.216 190.268C127.94 192.386 127.244 194.427 126.167 196.271C125.091 198.115 123.656 199.724 121.948 201.005C120.239 202.286 118.292 203.212 116.22 203.729C114.148 204.245 111.994 204.342 109.884 204.013C107.775 203.684 105.752 202.936 103.936 201.813L80 187.861V208C80 212.243 78.3143 216.313 75.3137 219.314C72.3131 222.314 68.2435 224 64 224C59.7565 224 55.6869 222.314 52.6863 219.314C49.6857 216.313 48 212.243 48 208V160C47.9992 157.203 48.7315 154.455 50.124 152.029C51.5164 149.604 53.5204 147.586 55.936 146.176L103.936 118.187C105.751 117.127 107.757 116.436 109.84 116.152C111.923 115.868 114.041 115.997 116.073 116.532C118.106 117.067 120.013 117.997 121.686 119.269C123.359 120.541 124.765 122.131 125.824 123.947ZM386.176 123.947C387.235 122.131 388.641 120.541 390.314 119.269C391.987 117.997 393.894 117.067 395.927 116.532C397.959 115.997 400.077 115.868 402.16 116.152C404.243 116.436 406.249 117.127 408.064 118.187L456.064 146.176C458.48 147.586 460.484 149.604 461.876 152.029C463.269 154.455 464.001 157.203 464 160V208C464 212.243 462.314 216.313 459.314 219.314C456.313 222.314 452.243 224 448 224C443.757 224 439.687 222.314 436.686 219.314C433.686 216.313 432 212.243 432 208V187.861L408.064 201.813C406.248 202.936 404.225 203.684 402.116 204.013C400.006 204.342 397.852 204.245 395.78 203.729C393.708 203.212 391.761 202.286 390.052 201.005C388.344 199.724 386.909 198.115 385.833 196.271C384.756 194.427 384.06 192.386 383.784 190.268C383.509 188.151 383.66 186 384.229 183.942C384.797 181.884 385.772 179.961 387.096 178.285C388.42 176.61 390.065 175.216 391.936 174.187L416.256 160L391.936 145.813C388.275 143.675 385.611 140.172 384.531 136.072C383.451 131.972 384.043 127.611 386.176 123.947ZM194.176 235.947C195.235 234.131 196.641 232.541 198.314 231.269C199.987 229.997 201.894 229.067 203.927 228.532C205.959 227.997 208.077 227.868 210.16 228.152C212.243 228.436 214.249 229.127 216.064 230.187L256 253.483L295.936 230.187C297.752 229.064 299.775 228.316 301.884 227.987C303.994 227.658 306.148 227.755 308.22 228.271C310.292 228.788 312.239 229.714 313.948 230.995C315.656 232.276 317.091 233.885 318.167 235.729C319.244 237.573 319.94 239.614 320.216 241.732C320.491 243.849 320.34 246 319.771 248.058C319.203 250.116 318.228 252.04 316.904 253.715C315.58 255.39 313.935 256.784 312.064 257.813L272 281.195V320C272 324.243 270.314 328.313 267.314 331.314C264.313 334.314 260.243 336 256 336C251.757 336 247.687 334.314 244.686 331.314C241.686 328.313 240 324.243 240 320V281.173L199.936 257.813C196.275 255.676 193.611 252.172 192.531 248.072C191.451 243.972 192.043 239.611 194.176 235.947ZM64 288C68.2435 288 72.3131 289.686 75.3137 292.686C78.3143 295.687 80 299.757 80 304V342.827L120.064 366.187C121.935 367.216 123.58 368.61 124.904 370.285C126.228 371.96 127.203 373.884 127.771 375.942C128.34 378 128.491 380.151 128.216 382.268C127.94 384.386 127.244 386.427 126.167 388.271C125.091 390.115 123.656 391.724 121.948 393.005C120.239 394.286 118.292 395.212 116.22 395.729C114.148 396.245 111.994 396.342 109.884 396.013C107.775 395.684 105.752 394.936 103.936 393.813L55.936 365.824C53.5204 364.414 51.5164 362.396 50.124 359.971C48.7315 357.545 47.9992 354.797 48 352V304C48 299.757 49.6857 295.687 52.6863 292.686C55.6869 289.686 59.7565 288 64 288ZM448 288C452.243 288 456.313 289.686 459.314 292.686C462.314 295.687 464 299.757 464 304V352C464.001 354.797 463.269 357.545 461.876 359.971C460.484 362.396 458.48 364.414 456.064 365.824L408.064 393.813C406.248 394.936 404.225 395.684 402.116 396.013C400.006 396.342 397.852 396.245 395.78 395.729C393.708 395.212 391.761 394.286 390.052 393.005C388.344 391.724 386.909 390.115 385.833 388.271C384.756 386.427 384.06 384.386 383.784 382.268C383.509 380.151 383.66 378 384.229 375.942C384.797 373.884 385.772 371.96 387.096 370.285C388.42 368.61 390.065 367.216 391.936 366.187L432 342.805V304C432 299.757 433.686 295.687 436.686 292.686C439.687 289.686 443.757 288 448 288ZM256 400C260.243 400 264.313 401.686 267.314 404.686C270.314 407.687 272 411.757 272 416V436.139L295.936 422.187C297.752 421.064 299.775 420.316 301.884 419.987C303.994 419.658 306.148 419.755 308.22 420.271C310.292 420.788 312.239 421.714 313.948 422.995C315.656 424.276 317.091 425.885 318.167 427.729C319.244 429.573 319.94 431.614 320.216 433.732C320.491 435.849 320.34 438 319.771 440.058C319.203 442.116 318.228 444.04 316.904 445.715C315.58 447.39 313.935 448.784 312.064 449.813L264.064 477.824C261.617 479.252 258.834 480.005 256 480.005C253.166 480.005 250.383 479.252 247.936 477.824L199.936 449.813C198.065 448.784 196.42 447.39 195.096 445.715C193.772 444.04 192.797 442.116 192.229 440.058C191.66 438 191.509 435.849 191.784 433.732C192.06 431.614 192.756 429.573 193.833 427.729C194.909 425.885 196.344 424.276 198.052 422.995C199.761 421.714 201.708 420.788 203.78 420.271C205.852 419.755 208.006 419.658 210.116 419.987C212.225 420.316 214.248 421.064 216.064 422.187L240 436.139V416C240 411.757 241.686 407.687 244.686 404.686C247.687 401.686 251.757 400 256 400Z" stroke="black" stroke-width="5.2" mask="url(#path-1-outside-1_1_2)"></path>
</svg></svg><style>@media (prefers-color-scheme: light) { :root { filter: none; } }
@media (prefers-color-scheme: dark) { :root { filter: none; } }
</style></svg>